<svg width="40" height="48" viewBox="0 0 40 48" fill="none" xmlns="http://www.w3.org/2000/svg">
<path fill-rule="evenodd" clip-rule="evenodd" d="M18.7791 0.36425C13.2749 3.44014 7.93255 4.89713 1.78078 5.54469C0.809444 5.70658 0 6.51602 0 7.64924V24.1619C0 37.7605 9.06577 41.3221 18.6172 47.6357C19.2648 48.1214 20.2361 48.1214 20.8836 47.6357C30.4351 41.3221 39.5008 37.7605 39.5008 24.1619V7.64924C39.5008 6.51602 38.6914 5.70658 37.7201 5.54469C31.5683 4.89713 26.226 3.44014 20.7218 0.36425C20.0742 -0.121417 19.4266 -0.121417 18.7791 0.36425ZM16.3508 27.0759L26.0641 17.2007C27.8449 15.5818 30.4351 18.0101 28.6543 19.7909L17.6459 30.7993C16.8364 31.6088 15.7032 31.6088 15.0557 30.9612L10.8465 26.7521C9.22766 24.9713 11.656 22.543 13.4368 24.1619L16.3508 27.0759Z" fill="white"/>
</svg>
