<svg width="44" height="44" viewBox="0 0 44 44" fill="none" xmlns="http://www.w3.org/2000/svg">
<path d="M40.1141 3.8086C37.6598 1.36919 34.3399 0 30.8795 0C27.4191 0 24.0993 1.36919 21.6449 3.8086L3.6387 21.7686C-1.45304 26.8603 -1.08274 35.0997 4.00901 40.1914C6.46333 42.6308 9.78317 44 13.2436 44C16.704 44 20.0238 42.6308 22.4781 40.1914L40.1141 22.2314C41.3317 21.0262 42.2982 19.5916 42.9579 18.0105C43.6176 16.4294 43.9572 14.7332 43.9572 13.02C43.9572 11.3068 43.6176 9.61063 42.9579 8.02953C42.2982 6.44843 41.3317 5.01379 40.1141 3.8086ZM27.2922 26.5826L17.2475 16.5842C17.0404 16.3778 16.876 16.1325 16.7639 15.8625C16.6518 15.5924 16.594 15.3029 16.594 15.0104C16.594 14.718 16.6518 14.4285 16.7639 14.1584C16.876 13.8883 17.0404 13.643 17.2475 13.4366L24.1445 6.58591C27.8476 2.88283 34.004 2.79025 37.6145 6.58591C39.3064 8.33668 40.2404 10.6834 40.2144 13.118C40.1884 15.5525 39.2045 17.8787 37.4756 19.593L30.4861 26.5826C30.0613 27.0037 29.4873 27.2401 28.8891 27.2401C28.2909 27.2401 27.7169 27.0037 27.2922 26.5826Z" fill="white"/>
</svg>
